<svg xmlns="http://www.w3.org/2000/svg" viewBox="0 0 400 600" width="400" height="600">
  <path d="M 120 100 L 140 60 L 180 50 L 220 55 L 260 70 L 280 110 L 270 160 L 260 200 
           L 290 260 L 310 300 L 320 340 L 300 370 L 270 340 L 260 300 L 240 270 L 260 310 L 280 360 L 290 400 
           L 270 420 L 250 440 L 260 470 L 280 510 L 270 550 L 240 560 L 220 530 L 200 490 L 190 450 L 180 470 
           L 160 510 L 140 550 L 110 560 L 100 530 L 110 490 L 130 450 L 140 420 L 120 410 L 100 430 
           L 80 400 L 100 360 L 120 320 L 110 280 L 100 240 L 90 200 L 100 160 L 110 120 Z" 
        fill="#5B7A5B" />
  <circle cx="180" cy="120" r="5" fill="#F5F0E8" />
  <circle cx="220" cy="120" r="5" fill="#F5F0E8" />
  <circle cx="180" cy="120" r="2" fill="#1A1A1A" />
  <circle cx="220" cy="120" r="2" fill="#1A1A1A" />
  <!-- несёт что-то на голове -->
  <path d="M 150 50 L 140 20 L 260 20 L 250 55 Z" fill="#7A9B6B" />
</svg>
