<svg xmlns="http://www.w3.org/2000/svg" viewBox="0 0 400 600" width="400" height="600">
  <!-- силуэт из оригинального вектора, почищенный -->
  <path d="M 80 180 
           L 75 200 L 60 230 L 65 260 
           L 55 280 L 60 310 L 50 340 L 55 370 
           L 70 390 L 65 420 L 80 440 L 75 470 
           L 90 490 L 100 520 L 120 540 L 140 550 
           L 170 555 L 200 550 L 230 545 L 260 535 
           L 280 520 L 300 500 L 310 470 
           L 315 440 L 320 410 L 330 380 L 340 350 
           L 345 320 L 340 290 L 335 260 L 340 230 
           L 330 210 L 310 195 L 290 185 
           L 260 175 L 230 170 L 200 175 
           L 170 180 L 140 175 L 120 170 L 105 175 Z" 
        fill="#4A7A4A" />
  
  <!-- глаза -->
  <circle cx="170" cy="250" r="7" fill="#F5F0E8" />
  <circle cx="230" cy="250" r="7" fill="#F5F0E8" />
  <circle cx="168" cy="250" r="3" fill="#1A1A1A" />
  <circle cx="228" cy="250" r="3" fill="#1A1A1A" />
  
  <!-- рот -->
  <line x1="180" y1="290" x2="220" y2="290" stroke="#3A603A" stroke-width="3" stroke-linecap="round" />
</svg>
